<svg data-name="Layer 1" xmlns="http://www.w3.org/2000/svg" width="128" height="129"><path d="M126.058 63.21a81.815 81.815 0 0 0-2.161-8.268 89.968 89.968 0 0 0-7.281-16.262q-1.388-2.426-2.959-4.741-2.044-3.021-4.346-5.853a9.18 9.18 0 0 0-14.271 11.55 64.9 64.9 0 0 1 8.1 13.561 61.679 61.679 0 0 1 4.539 15c.98 5.946 1.725 18.185-4.858 27.873a26.542 26.542 0 0 1-17.266 12.005l-.165.028a28.485 28.485 0 0 1-4.592.488c-10.659.165-22.1-3.483-30.118-7.664a59.878 59.878 0 0 1-20.068-16.536 45.177 45.177 0 0 1-4.438-7.2l-.016-.032-.024-.052v.012a42.333 42.333 0 0 1-3.269-9.272c-1.04-4.6-1.713-16.48 5.249-26.571 7.5-10.864 16.125-17.806 36.076-18.06 6.37-.085 11.356-3.4 12.038-9.869S72.72 1.354 65.749.4a45.534 45.534 0 0 0-7.188-.385h-.012a50.821 50.821 0 0 0-8.264.835 58.951 58.951 0 0 0-7.155 1.709c-6.6 2.024-15.839 6.837-24.2 14.916a65.981 65.981 0 0 0-9.909 12.11v.016C5.2 35.612-3.428 51.874 1.462 72.607c4.866 20.624 19.318 34.54 30.852 42.131 18.568 12.211 36.6 14.94 49.307 14.13a47.949 47.949 0 0 0 37.7-22.1 53.359 53.359 0 0 0 6.12-13.787 21.58 21.58 0 0 0 .274-1.088c.423-1.693 1.008-4.777 1.165-5.793a64.849 64.849 0 0 0-.822-22.89z" fill="#37454d"/></svg>