<svg id="Layer_1" data-name="Layer 1" xmlns="http://www.w3.org/2000/svg" width="128" height="130" viewBox="0 0 128 130"><title>logo_coloured</title><path d="M49.167,109.843c-51.08-25.558-43.436-71.916-30.16-92.31a66.215,66.215,0,0,0-9.948,12.16l0,.016v0l0,0C5.223,35.74-3.441,52.061,1.467,72.868c4.883,20.7,19.384,34.664,30.962,42.281,18.634,12.255,36.73,14.993,49.481,14.179a48.1,48.1,0,0,0,37.829-22.176,53.5,53.5,0,0,0,6.141-13.836C124.091,96.09,99.749,135.148,49.167,109.843Z" fill="#c94a30"/><path d="M83.83,108.774c-.876.1-1.793.177-2.743.2-10.695.166-22.176-3.5-30.223-7.692a60.134,60.134,0,0,1-20.14-16.593C0,45.681,39.613,5.562,50.471.85a59.71,59.71,0,0,0-7.183,1.716C36.671,4.6,27.394,9.426,19.007,17.533a63.75,63.75,0,0,0-3.779,5.316l-.006.016,0,0,0,0c-3.732,5.883-12.176,21.79-7.392,42.068,4.759,20.177,18.893,33.787,30.178,41.21,18.16,11.947,35.8,14.614,48.227,13.82A46.867,46.867,0,0,0,123.1,98.342a50.252,50.252,0,0,0,2.779-5.025c.19-.691.277-1.09.277-1.09.425-1.7,1.009-4.792,1.169-5.812a65.07,65.07,0,0,0-.822-22.976C124.739,77.877,113.276,106.2,83.83,108.774ZM26.255,77.439l-.028-.063.036.075Zm54.87,31.539H81.1l.087,0Z" fill="#f48f00"/><path d="M117.031,38.822c-1.094-1.985-2.866-4.607-2.971-4.759-1.5-2.2-3.084-4.326-4.36-5.873A9.213,9.213,0,0,0,95.379,39.782a65.1,65.1,0,0,1,8.129,13.608,62.023,62.023,0,0,1,4.555,15.052c.984,5.966,1.73,18.249-4.875,27.971A26.623,26.623,0,0,1,85.86,108.46l-.166.028c-.6.115-1.226.211-1.864.286,1.053-.008,2.077-.049,3.059-.112A41.336,41.336,0,0,0,119.408,89.6a44.477,44.477,0,0,0,5.517-12.828c.365-1.462.867-4.121,1.005-5a49.081,49.081,0,0,0,.574-8.335,81.566,81.566,0,0,0-2.169-8.3A90.532,90.532,0,0,0,117.031,38.822Z" fill="#007fad"/><path d="M26.268,77.462a42.368,42.368,0,0,1-3.317-9.379c-1.043-4.613-1.721-16.538,5.268-26.666,7.524-10.9,16.18-17.869,36.2-18.126,6.392-.083,11.4-3.41,12.081-9.9S72.984,1.357,65.989.4A45.558,45.558,0,0,0,58.775.014l-.014,0,0,0A51.239,51.239,0,0,0,50.471.85,58.122,58.122,0,0,0,24.261,23.013l0,.014v0l0,0c-3.291,5.187-10.74,19.219-6.521,37.1a56.648,56.648,0,0,0,12.99,24.566A45.307,45.307,0,0,1,26.268,77.462Zm-.014-.024-.028-.063.036.075Z" fill="#007fad"/></svg>